<?xml version="1.0" encoding="utf-8"?>
<!-- Generator: Adobe Illustrator 27.2.0, SVG Export Plug-In . SVG Version: 6.00 Build 0)  -->
<svg version="1.1" id="Layer_1" xmlns="http://www.w3.org/2000/svg" xmlns:xlink="http://www.w3.org/1999/xlink" x="0px" y="0px"
	 width="1563.9px" height="370.8px" viewBox="0 0 1563.9 370.8" style="enable-background:new 0 0 1563.9 370.8;"
	 xml:space="preserve">
<style type="text/css">
	.st0{fill:#FFFFFF;}
	.st1{fill:#231F20;}
</style>
<g>
	<path class="st1" d="M627.1,230.9c5,0.3,9.5,0.9,13,1.9c16.1,4.3,21.8,13,21.8,28.6c0,24.5-14.7,34.2-48.9,34.2H500
		c0.9-18.4,1-37.5,1-65c0-27.6-0.2-47.2-1-65h110.8c31.4,0,49.4,8.7,49.4,34.2c0,15.3-4.9,22.5-18.4,27.4c-3.8,1.4-8.8,2.3-14.7,2.8
		V230.9z M591.3,193c-11.6,0-23.9,0.2-37.6,0.3c-0.2,7.1-0.2,15.4-0.2,24.4c13.9,0.3,26,0.2,36.9,0.2c11.4-0.2,16.8-4,16.8-13.4
		C607.2,195.9,602.4,193,591.3,193z M607.9,252.8c0-8.8-5-12-17.3-12c-10.8,0-23.6,0.2-37.1,0.5c0,8.5,0.2,16.6,0.3,23.8
		c14.7,0.3,26.7,0.3,37.6,0.3C603.2,265.4,607.9,262.5,607.9,252.8z"/>
	<path class="st1" d="M858.3,165.6c-0.5,10.9-0.9,21.7-0.9,38c0,9.7,0.3,24.6,0.3,35c0,41.1-19.2,60.2-82.9,60.2
		c-63.5,0-83.1-19.1-83.1-60.2c0-10.4,0.3-25.3,0.3-35c0-16.3-0.3-27.1-0.7-38h56c-0.7,19.8-1,51.5-1,69.7c0,16.5,9,23.8,29.7,23.8
		c20.5,0,28.3-7.3,28.3-23.8c0-18.2-0.3-49.9-0.7-69.7H858.3z"/>
	<path class="st1" d="M950.6,165.6c-0.5,9.7-0.7,36.8-0.9,65.5c0,7.8,0,15.6,0,22.7c16.6,0,39.2,0,58.6-0.5
		c-0.2,6.9-0.3,14-0.3,21.2c0,7.1,0.2,14,0.3,21.2H893.8c0.2-11.3,0.7-37.3,0.7-65c0-29.3-0.2-52.5-0.7-65H950.6z"/>
	<path class="st1" d="M1090.5,165.6c-0.5,9.7-0.7,36.8-0.9,65.5c0,7.8,0,15.6,0,22.7c16.6,0,39.2,0,58.6-0.5
		c-0.2,6.9-0.3,14-0.3,21.2c0,7.1,0.2,14,0.3,21.2h-114.5c0.2-11.3,0.7-37.3,0.7-65c0-29.3-0.2-52.5-0.7-65H1090.5z"/>
	<path class="st1" d="M1336.4,165.6c-0.2,1.4-0.2,3.3-0.2,5.2c0,1.9,0,4.2,0.2,6.1c-41.8-0.3-82.5-0.5-114.6-0.5
		c-0.2,13.7-0.2,39.5-0.2,52.9v5.2c39.9,0,79.4,0,113.2-0.5c-0.2,3.1-0.2,8.2-0.2,10.9c-33.5-0.2-73.7-0.3-113.1-0.3
		c0.2,18.4,0.3,40.4,0.9,51.2h-13.5c0.3-17.5,0.5-37.3,0.5-65c0-27.6,0-47.9-0.5-65H1336.4z"/>
	<path class="st1" d="M1380.2,295.6c0.5-20.8,0.5-37.5,0.5-65c0-27.7,0-44.4-0.5-65h13.5c-0.7,20.5-0.5,37.1-0.5,65
		c0,27.4-0.2,44,0.5,65H1380.2z"/>
	<path class="st1" d="M1563.9,165.6v5.4v5.5c-22-0.3-43.9-0.3-61.4-0.3c0,55.5-0.2,107.2,0.3,119.5h-6.8h-6.4
		c0.5-12.1,0.5-63.8,0.5-119.5c-17.3,0-39.2,0-61.6,0.3v-5.4v-5.5H1563.9z"/>
</g>
<path class="st1" d="M316.9,125.8C316.9,125.8,316.8,125.8,316.9,125.8l-0.2-0.3L316.9,125.8z M307.4,289.3l9,8.1l-30.7,73.3h-125
	l-31.2-73.3l8.9-8.1l-55.8-88.4l32.2-57l42.4,1.2l-29.1,50.4l57.7,92.1l-10.2,20.3l11.2,23.9h72.6l11-23.8L260.4,288l56-92.1
	l-41.8-68.6c-34.3,0.9-68.5,1-102.8,0.2l-72.5-2.9h-0.2c-20.1-1.2-40.2-2.7-60.4-4.5l-7.8-0.7l-3.2-3.5C19.3,106.4,8.3,94,0,84.5
	c0.3-14.6,0.9-29.3,1.7-43.9C2.6,27.4,3.5,13.1,5.2,0c2.9,9.4,5.9,19.9,8.4,29.4c3.7,14.2,7.1,28.7,10.2,43.1
	c5.9,4.3,13.3,9.8,19.7,14.5c58.8-5.3,117.6-7.4,176.6-7.5c23.4,0,46.7,0.4,70.1,1.1l2.2,3.7l24.3,41.1l0.2,0.3l44.9,75.1
	L307.4,289.3z M440.3,84.5c-8.4,9.6-19.1,21.8-27.8,31.3l-3.2,3.5c-27.1,2.6-44.6,4.6-71.8,6l-26.1-44.2c31.7,1.2,53.7,3.1,85.4,6
	c6.4-4.7,13.8-10.2,19.8-14.5c5.3-24.3,11.1-48.8,18.6-72.5C438.4,28,439.6,56.4,440.3,84.5z M348,143.2l62.2-3.8
	c0,0-7.3,26.2-19.9,26.2c-12.6,0-33-7.8-33-7.8L348,143.2z M83,157.8c0,0-20.4,7.8-33,7.8s-19.9-26.2-19.9-26.2l62.2,3.8L83,157.8z"
	/>
</svg>
