<?xml version="1.0" encoding="UTF-8"?>
<svg width="564px" height="156px" viewBox="0 0 564 156" version="1.1" xmlns="http://www.w3.org/2000/svg" xmlns:xlink="http://www.w3.org/1999/xlink">
    <!-- Generator: Sketch 63.1 (92452) - https://sketch.com -->
    <title>logos/dixon_ticonderoga/color</title>
    <desc>Created with Sketch.</desc>
    <g id="logos/dixon_ticonderoga/color" stroke="none" stroke-width="1" fill="none" fill-rule="evenodd">
        <g id="dixon_ticonderoga_logo">
            <g id="Sun" transform="translate(0.000000, -0.000000)">
                <path d="M70.669056,22.4453333 L70.669056,22.4453333 C70.18008,22.652 69.691104,22.8586667 69.208808,23.0786667 C69.77928,22.7426667 70.437928,22.568 70.669056,22.4453333 M153.151024,83.7226667 L166.7996,69.8666667 L150.813024,58.288 L159.134968,40.2386667 L138.484416,36.6226667 L130.671488,13.5826667 C130.671488,13.5826667 107.148536,18.748 106.769112,18.6706667 L85.91148,9.47390314e-15 L70.996376,21.9586667 L42.443384,12.4453333 L47.176832,39.292 L10.271168,42.996 L34.610416,65.1506667 L9.49285095e-15,84.836 L37.799448,93.208 L23.95448,125.014667 L55.10332,118.262667 C55.643064,118.146667 61.051192,155.377333 61.051192,155.377333 L87.34768,132.584 C87.438528,132.594667 87.526704,132.610667 87.616216,132.62 L105.124496,155.294667 L121.08168,127.070667 L147.944632,135.357333 L142.129024,109.970667 L166.163664,103 C166.163664,103 153.104264,84.0493333 153.151024,83.7226667" id="Fill-5" fill="#FAAE17"></path>
                <path d="M51.5710696,39.1406667 C40.4729176,53.8953333 32.4422216,73.262 39.6806696,92.9126667 C39.6873496,92.9366667 42.1389096,96.97 42.1482616,96.9966667 L106.546134,72.2646667 C96.9175816,58.1953333 68.8455496,39.206 51.5710696,39.1406667" id="Fill-7" fill="#8CC63F"></path>
                <path d="M103.782083,72.3229333 L123.274323,64.3736 C110.629083,47.7629333 95.0125792,33.4922667 72.2391232,23.2202667 C65.1396192,27.0042667 56.0307712,33.0589333 51.1156272,39.5882667 C82.3553152,49.0709333 98.6184432,66.1016 103.782083,72.3229333" id="Fill-9" fill="#EB008B"></path>
                <path d="M124.216738,101.876933 C123.242794,102.562267 114.979634,83.6409333 114.979634,83.6409333 C112.06181,79.1702667 106.447938,73.7942667 102.812682,69.8889333 L39.5317056,92.1289333 C53.3860256,129.598267 99.1079536,141.246267 127.874706,122.008933 C128.386394,121.666267 128.878042,121.306267 129.37637,120.944933 C128.295546,114.6876 126.708378,108.5716 124.525354,102.642267 C124.429162,102.3836 124.318274,102.1356 124.216738,101.876933" id="Fill-11" fill="#91278F"></path>
                <path d="M127.678046,122.050133 C126.60791,115.5488 124.955278,109.238133 122.762902,103.2888 C118.502398,91.7141333 112.116318,81.2968 103.78235,72.3234667 L101.873206,70.2648 L120.217822,63.5034667 C107.829094,47.8274667 89.3936304,33.0661333 72.5413264,24.1594667 L76.1605504,21.6514667 C94.0963504,31.1301333 111.715518,46.1794667 124.555814,62.9741333 C124.67071,63.0861333 126.295286,65.2634667 126.295286,65.2634667 C126.295286,65.2634667 112.334086,70.4021333 108.40491,71.8501333 C116.16707,80.7074667 122.176398,90.8354667 126.285934,101.995467 C128.557134,108.167467 129.434886,112.610133 130.54243,119.346133 L127.678046,122.050133 Z" id="Fill-13" fill="#FEFEFE"></path>
                <path d="M92.8429152,93.6386667 C97.1942672,98.1106667 106.490155,101.946667 112.540899,102 C126.416595,102.124 136.105267,92.3786667 136.729179,79.8293333 C136.795979,78.52 136.729179,77.2306667 136.556835,75.9706667 C127.902227,91.0533333 110.746651,97.2373333 92.8429152,93.6386667" id="Fill-15" fill="#FEFEFE"></path>
                <path d="M94.0197976,21.0768 C64.3819736,21.0768 40.0921576,43.4181333 38.7214216,71.9408 C37.2865576,101.719467 60.9244056,127.314133 91.4119256,128.9968 C92.5795896,129.062133 93.7606136,129.094133 94.9189256,129.094133 C109.789942,129.094133 123.58147,123.730133 133.753774,113.990133 C143.78847,104.3808 149.48651,91.3541333 149.79379,77.3168 C150.452438,47.2701333 127.190006,22.5968 96.8320776,21.1434667 C95.8982136,21.0994667 94.9523256,21.0768 94.0197976,21.0768 M91.2035096,132.734133 C58.6665656,130.938133 33.4415496,103.586133 34.9752776,71.7621333 C36.4422056,41.2408 62.3779736,17.3328 94.0197976,17.3328 C95.0124456,17.3328 96.0197896,17.3568 97.0124376,17.4061333 C129.417118,18.9541333 154.248014,45.3061333 153.543942,77.3981333 C153.21395,92.4368 147.107094,106.391467 136.350958,116.691467 C125.477254,127.103467 110.76255,132.8368 94.9189256,132.8368 C93.6911416,132.8368 92.4406456,132.802133 91.2035096,132.734133 Z" id="Fill-17" fill="#FEFEFE"></path>
            </g>
            <path d="M320.867956,104 L340.971541,124.951468 L340.971541,105.866687 L345.129434,105.866687 L345.129434,135 L325.027181,114.101601 L325.027181,133.327014 L320.867956,133.327014 L320.867956,104 Z M512.151531,105.33295 C514.30639,105.33295 516.317414,105.772092 518.187267,106.64905 C519.973217,107.527335 521.728535,108.949572 523.450558,110.918416 L520.487293,113.745643 C518.227222,110.74727 515.47305,109.245429 512.220785,109.245429 C509.306797,109.245429 506.861604,110.247098 504.885207,112.251763 C502.90881,114.21928 501.921943,116.685642 501.921943,119.650847 C501.921943,122.708923 503.022013,125.228353 505.223485,127.20781 C507.282455,129.046636 509.514558,129.964722 511.921129,129.964722 C513.965448,129.964722 515.806001,129.278811 517.437462,127.901682 C519.064926,126.515266 519.97588,124.856873 520.166328,122.923851 L513.292887,122.923851 L513.292887,119.027292 L524.683808,119.027292 L524.683808,119.936091 C524.683808,121.996478 524.438756,123.823363 523.952648,125.41144 C523.475862,126.882766 522.671452,128.258568 521.54075,129.538847 C518.983686,132.408529 515.728757,133.842707 511.77463,133.842707 C507.920389,133.842707 504.616183,132.456291 501.867339,129.680805 C499.118495,126.896033 497.742741,123.551387 497.742741,119.650847 C497.742741,115.666725 499.142467,112.287585 501.939256,109.512099 C504.734713,106.727326 508.140137,105.33295 512.151531,105.33295 Z M258.355997,105.332154 C260.831821,105.332154 263.223742,106.003471 265.53309,107.343452 L265.53309,112.250967 C263.129184,110.246302 260.641373,109.24596 258.069659,109.24596 C255.238244,109.24596 252.851651,110.259569 250.911212,112.288115 C248.958787,114.303394 247.983906,116.768428 247.983906,119.685873 C247.983906,122.568822 248.958787,124.999362 250.911212,126.977493 C252.863637,128.958277 255.255557,129.946679 258.088305,129.946679 C259.553289,129.946679 260.795863,129.709197 261.82002,129.236887 C262.391364,128.999405 262.982685,128.67834 263.595315,128.276346 C264.207945,127.874352 264.855202,127.386121 265.53309,126.816961 L265.53309,131.814692 C263.151824,133.156 260.65336,133.824664 258.035033,133.824664 C254.095556,133.824664 250.73275,132.456822 247.947948,129.715831 C245.173799,126.953612 243.787391,123.62356 243.787391,119.721694 C243.787391,116.223149 244.947393,113.106698 247.268727,110.365707 C250.126779,107.011774 253.822536,105.332154 258.355997,105.332154 Z M293.950063,105.350197 C297.877553,105.350197 301.245686,106.74988 304.054461,109.546593 C306.875222,112.34596 308.285603,115.707853 308.285603,119.632273 C308.285603,123.581901 306.868563,126.929201 304.037148,129.680805 C301.191082,132.443024 297.759023,133.824133 293.735642,133.824133 C290.177061,133.824133 286.980731,132.59825 284.147984,130.143829 C281.03023,127.429372 279.470687,123.869798 279.470687,119.471741 C279.470687,115.60835 280.891723,112.287585 283.737788,109.512099 C286.570536,106.73794 289.973295,105.350197 293.950063,105.350197 Z M472.313005,105.350197 C476.240496,105.350197 479.607297,106.74988 482.417404,109.546593 C485.238165,112.34596 486.647214,115.707853 486.647214,119.632273 C486.647214,123.581901 485.231506,126.929201 482.398759,129.680805 C479.554025,132.443024 476.120634,133.824133 472.098585,133.824133 C468.538672,133.824133 465.343674,132.59825 462.509595,130.143829 C459.391841,127.429372 457.83363,123.869798 457.83363,119.471741 C457.83363,115.60835 459.254665,112.287585 462.099399,109.512099 C464.933478,106.73794 468.336238,105.350197 472.313005,105.350197 Z M207.818023,105.865758 L207.818023,109.762317 L201.497281,109.762317 L201.497281,133.327412 L197.336724,133.327412 L197.336724,109.762317 L191,109.762317 L191,105.865758 L207.818023,105.865758 Z M367.185043,105.866023 C369.95786,105.866023 372.147346,106.139326 373.754833,106.684606 C375.480852,107.219272 377.045722,108.125417 378.450775,109.40437 C381.294177,111.990135 382.717876,115.386523 382.717876,119.596187 C382.717876,123.817791 381.235578,127.232753 378.272313,129.842399 C376.784688,131.146559 375.225145,132.054031 373.593685,132.560836 C372.070101,133.071621 369.911246,133.327677 367.113126,133.327677 L361.401018,133.327677 L361.401018,105.866023 L367.185043,105.866023 Z M411.36565,105.865758 L411.36565,109.762317 L400.313007,109.762317 L400.313007,116.360066 L411.043353,116.360066 L411.043353,120.255298 L400.313007,120.255298 L400.313007,129.430853 L411.36565,129.430853 L411.36565,133.327412 L396.153782,133.327412 L396.153782,105.865758 L411.36565,105.865758 Z M550.841775,104.142091 L564,133.327146 L559.44523,133.327146 L556.553883,126.659082 L544.754098,126.659082 L541.681625,133.327146 L537.201436,133.327146 L550.841775,104.142091 Z M229.396847,105.866421 L229.396847,133.326748 L225.237623,133.326748 L225.237623,105.866421 L229.396847,105.866421 Z M433.465076,105.866289 C437.107561,105.866289 439.737874,106.54822 441.357348,107.910755 C443.141965,109.429843 444.035606,111.433181 444.035606,113.923423 C444.035606,115.868386 443.474916,117.538719 442.356201,118.938402 C441.237485,120.336759 439.763178,121.232291 437.929284,121.623671 L446.463485,133.326616 L441.375993,133.326616 L433.499703,122.086694 L432.751229,122.086694 L432.751229,133.326616 L428.592004,133.326616 L428.592004,105.866289 L433.465076,105.866289 Z M293.895459,109.245429 C291.026752,109.245429 288.605532,110.241791 286.630467,112.233189 C284.654069,114.202033 283.665871,116.632573 283.665871,119.52481 C283.665871,122.560331 284.690028,125.057207 286.737011,127.01411 C288.772008,128.969687 291.122642,129.946148 293.788914,129.946148 C296.67893,129.946148 299.120127,128.951113 301.10851,126.959715 C303.096894,124.94311 304.09042,122.488689 304.09042,119.596452 C304.09042,116.668394 303.10888,114.213973 301.144469,112.233189 C299.192044,110.241791 296.776151,109.245429 293.895459,109.245429 Z M472.258401,109.245429 C469.389695,109.245429 466.967143,110.241791 464.99341,112.233189 C463.01568,114.202033 462.028813,116.632573 462.028813,119.52481 C462.028813,122.560331 463.051639,125.057207 465.099954,127.01411 C467.133619,128.969687 469.485585,129.946148 472.151857,129.946148 C475.041872,129.946148 477.483069,128.951113 479.471453,126.959715 C481.459837,124.94311 482.453363,122.488689 482.453363,119.596452 C482.453363,116.668394 481.471823,114.213973 479.50608,112.233189 C477.554987,110.241791 475.139094,109.245429 472.258401,109.245429 Z M367.434091,109.762582 L365.560242,109.762582 L365.560242,129.431118 L367.434091,129.431118 C369.303944,129.431118 370.856827,129.237418 372.094074,128.84471 C373.332651,128.429449 374.451367,127.771399 375.451552,126.87056 C377.498535,125.00918 378.521361,122.583947 378.521361,119.596187 C378.521361,116.585873 377.510521,114.143392 375.486179,112.268745 C373.665603,110.597086 370.980685,109.762582 367.434091,109.762582 Z M550.771189,113.425109 L546.485443,122.762522 L554.858496,122.762522 L550.771189,113.425109 Z M434.233527,109.762848 L432.751229,109.762848 L432.751229,118.475379 L434.072379,118.475379 C438.011856,118.475379 439.982926,116.976192 439.982926,113.976491 C439.982926,111.166511 438.065128,109.762848 434.233527,109.762848 Z" id="Ticonderoga" fill="#006738"></path>
            <path d="M444.047316,32 C448.87084,32 452.983024,32.464534 456.379872,33.3882473 C459.775388,34.3146379 462.538158,35.7805307 464.665517,37.7912804 C466.792876,39.8006913 468.33278,42.4018143 469.28523,45.5919717 C470.236347,48.7821292 470.713238,52.6751119 470.713238,57.2682425 L470.713238,73.7317575 C470.713238,78.3248881 470.236347,82.2339354 469.28523,85.4548833 C468.33278,88.6785086 466.792876,91.2943574 464.665517,93.3051071 C462.538158,95.3145181 459.775388,96.7670237 456.379872,97.6599465 C452.983024,98.554208 448.87084,99 444.047316,99 L414.617293,99 C409.792437,99 405.69757,98.554208 402.33136,97.6599465 C398.965151,96.7670237 396.22103,95.3145181 394.095003,93.3051071 C391.966312,91.2943574 390.410422,88.6785086 389.427335,85.4548833 C388.442915,82.2339354 387.951371,78.3248881 387.951371,73.7317575 L387.951371,57.2682425 C387.951371,52.6751119 388.442915,48.7821292 389.427335,45.5919717 C390.410422,42.4018143 391.966312,39.8006913 394.095003,37.7912804 C396.22103,35.7805307 398.965151,34.3146379 402.33136,33.3882473 C405.69757,32.464534 409.792437,32 414.617293,32 L444.047316,32 Z M238.429321,32.0005355 C243.571216,32.0005355 247.983122,32.5266504 251.667703,33.5788803 C255.348288,34.6337876 258.365488,36.2589874 260.715307,38.4598346 C263.062462,40.6633592 264.794189,43.4706442 265.905158,46.8830283 C267.014795,50.2980898 267.571612,54.3343151 267.571612,58.9903652 L267.571612,72.0080283 C267.571612,76.6667559 267.014795,80.7029811 265.905158,84.1153652 C264.794189,87.5304268 263.062462,90.3350344 260.715307,92.538559 C258.365488,94.7394062 255.348288,96.3659447 251.667703,97.4195133 C247.983122,98.4730818 243.571216,98.9991968 238.429321,98.9991968 L193.857349,98.9991968 C191.95245,98.9991968 191,98.040677 191,96.1276535 L191,34.8707401 C191,32.9577166 191.95245,32.0005355 193.857349,32.0005355 L238.429321,32.0005355 Z M291.951255,32.0002677 C293.347293,32.0002677 294.046644,32.703093 294.046644,34.1060662 L294.046644,96.8931306 C294.046644,98.2974425 293.347293,98.998929 291.951255,98.998929 L281.6648,98.998929 C280.204822,98.998929 279.474832,98.2974425 279.474832,96.8931306 L279.474832,34.1060662 C279.474832,32.703093 280.204822,32.0002677 281.6648,32.0002677 L291.951255,32.0002677 Z M319.664738,32.0002677 C320.42803,32.0002677 321.030138,32.1127198 321.475058,32.3349465 C321.918646,32.5598505 322.331597,32.8945293 322.712576,33.3403213 L343.474643,55.5455842 L365.475561,33.3403213 C365.856541,32.8945293 366.268159,32.5598505 366.713079,32.3349465 C367.156668,32.1127198 367.76144,32.0002677 368.522067,32.0002677 L380.903911,32.0002677 C381.79242,32.0002677 382.283963,32.304156 382.379874,32.9105938 C382.475785,33.5170316 382.299949,34.0431466 381.85636,34.4889386 L352.618159,64.2552629 L383.189789,96.5102582 C383.633378,96.9573889 383.809215,97.4848426 383.713304,98.0899417 C383.617393,98.6963795 383.125849,98.998929 382.23734,98.998929 L369.189448,98.998929 C368.427488,98.998929 367.824048,98.9038803 367.38046,98.7124441 C366.935539,98.5196691 366.522589,98.1702645 366.141609,97.6588755 L342.618105,72.8685542 L318.998689,97.6588755 C318.553769,98.1702645 318.124834,98.5196691 317.713216,98.7124441 C317.298933,98.9038803 316.679508,98.998929 315.856272,98.998929 L303.474429,98.998929 C302.648528,98.998929 302.188955,98.6963795 302.094376,98.0899417 C301.998465,97.4848426 302.17297,96.9573889 302.61789,96.5102582 L333.951481,63.7773418 L305.665728,34.4889386 C305.283417,34.0431466 305.124897,33.5170316 305.188838,32.9105938 C305.251446,32.304156 305.727005,32.0002677 306.616846,32.0002677 L319.664738,32.0002677 Z M499.474949,32.0002677 C500.998868,32.0002677 502.268356,32.0645261 503.283414,32.191704 C504.298472,32.3202206 505.188313,32.590641 505.950273,33.0056426 C506.712233,33.4206442 507.44089,33.9962916 508.141573,34.7285686 C508.83826,35.4621843 509.63219,36.43543 510.522031,37.6469669 L545.95182,84.3547275 C546.203586,84.8018582 546.617869,85.0254236 547.188006,85.0254236 L548.045877,85.0254236 C548.554738,85.0254236 548.807836,84.7068095 548.807836,84.0682425 L548.807836,34.1060662 C548.807836,32.703093 549.505855,32.0002677 550.903225,32.0002677 L560.903279,32.0002677 C562.299317,32.0002677 563,32.703093 563,34.1060662 L563,89.0442455 C563,92.9372283 562.299317,95.5704803 560.903279,96.9413243 C559.504577,98.3148457 557.346579,98.998929 554.426622,98.998929 L546.236889,98.998929 C544.775578,98.998929 543.554045,98.9360094 542.569625,98.8074928 C541.583873,98.6803149 540.712682,98.4246204 539.950722,98.0417479 C539.18743,97.6588755 538.441456,97.1006314 537.711467,96.3670157 C536.981477,95.6333999 536.140924,94.6293638 535.189807,93.3522299 L499.665438,46.6444693 C499.283127,46.1986773 498.870176,45.9737732 498.426588,45.9737732 L497.568717,45.9737732 C497.061188,45.9737732 496.806758,46.293726 496.806758,46.9309543 L496.806758,96.8931306 C496.806758,98.2974425 496.108739,98.998929 494.712701,98.998929 L484.712647,98.998929 C483.250005,98.998929 482.521347,98.2974425 482.521347,96.8931306 L482.521347,41.9549512 C482.521347,38.0633072 483.219366,35.4313939 484.618068,34.0578724 C486.014106,32.6870285 488.172104,32.0002677 491.093393,32.0002677 L499.474949,32.0002677 Z M238.048341,45.3046835 L206.80933,45.3046835 C205.983429,45.3046835 205.571811,45.7518143 205.571811,46.6447371 L205.571811,84.450044 C205.571811,85.2800472 205.983429,85.6950488 206.80933,85.6950488 L238.048341,85.6950488 C240.840417,85.6950488 243.191568,85.4406929 245.095135,84.9279652 C247.001366,84.4192535 248.538607,83.5892503 249.714848,82.4419717 C250.889758,81.2920157 251.730312,79.7605259 252.237841,77.8461637 C252.746702,75.9318015 252.9998,73.5729859 252.9998,70.7630235 L252.9998,60.23537 C252.9998,57.428085 252.746702,55.0665921 252.237841,53.1535686 C251.730312,51.2378676 250.889758,49.7063779 249.714848,48.5590993 C248.538607,47.4104819 247.001366,46.5818175 245.095135,46.0704284 C243.191568,45.560378 240.840417,45.3046835 238.048341,45.3046835 Z M443.475847,45.304148 L415.190095,45.304148 C412.712394,45.304148 410.66496,45.5129875 409.04513,45.9266504 C407.427964,46.3429907 406.14249,47.0444773 405.188709,48.0324488 C404.236259,49.0230978 403.552893,50.3618127 403.141275,52.0512708 C402.728325,53.7434063 402.523182,55.8331402 402.523182,58.3218111 L402.523182,72.6781889 C402.523182,75.1668598 402.728325,77.2565937 403.141275,78.9473905 C403.552893,80.6381873 404.236259,81.9782409 405.188709,82.9675512 C406.14249,83.9568614 407.427964,84.658348 409.04513,85.0720109 C410.66496,85.4883512 412.712394,85.6945133 415.190095,85.6945133 L443.475847,85.6945133 C445.952215,85.6945133 447.999649,85.4883512 449.618147,85.0720109 C451.236645,84.658348 452.522119,83.9568614 453.4759,82.9675512 C454.42835,81.9782409 455.110384,80.6381873 455.523334,78.9473905 C455.934952,77.2565937 456.141427,75.1668598 456.141427,72.6781889 L456.141427,58.3218111 C456.141427,55.8331402 455.934952,53.7434063 455.523334,52.0512708 C455.110384,50.3618127 454.42835,49.0230978 453.4759,48.0324488 C452.522119,47.0444773 451.236645,46.3429907 449.618147,45.9266504 C447.999649,45.5129875 445.952215,45.304148 443.475847,45.304148 Z" id="Dixon" fill="#21588D"></path>
        </g>
    </g>
</svg>